<?xml version="1.0" encoding="utf-8"?>
<!-- Generator: Adobe Illustrator 18.0.0, SVG Export Plug-In . SVG Version: 6.00 Build 0)  -->
<!DOCTYPE svg PUBLIC "-//W3C//DTD SVG 1.1//EN" "http://www.w3.org/Graphics/SVG/1.1/DTD/svg11.dtd">
<svg version="1.1" id="Layer_1" xmlns="http://www.w3.org/2000/svg" xmlns:xlink="http://www.w3.org/1999/xlink" x="0px" y="0px"
	 viewBox="0 0 55.5 20.4" enable-background="new 0 0 55.5 20.4" xml:space="preserve">
<path d="M0,9.1C5.1,5.9,10.1,2.4,15.7,0C13.6,2,11,3.4,8.5,4.8C6,6.2,3.4,7.6,0.6,9.2c7.5,1.8,13.6,5.9,19,10.9
	c0,0.1-0.1,0.2-0.1,0.3c-0.6-0.3-1.3-0.6-1.9-1c-3.8-2.4-7.6-4.9-11.5-7.2C4.1,11,2.1,10.2,0,9.1z"/>
<path d="M9.8,8.9c18.8-1.2,26.9-1.2,45.7-0.3C52.2,9.9,15.1,10.2,9.8,8.9z"/>
</svg>
