<svg xmlns="http://www.w3.org/2000/svg" viewBox="0 0 17 17"><title>menu logo shape vizru</title><path d="M14.934,11.75528a3.44977,3.44977,0,0,0-2.16386-.94669A7.24425,7.24425,0,0,1,8.62278,8.10378C7.6761,7.112,6.23353,5.71453,6.18845,3.9564A3.62606,3.62606,0,0,0,5.42209,1.477,2.80676,2.80676,0,0,0,1.31979,5.3088c.49588.541,1.08192.76637,2.47941.90161,1.48765.18032,3.15561,1.84829,4.01214,2.70481a9.19778,9.19778,0,0,1,2.34417,4.41786,3.05587,3.05587,0,0,0,.76636,2.16386,2.7915,2.7915,0,0,0,3.96706.13524,2.76013,2.76013,0,0,0,.04509-3.8769" style="fill:#fff"/><path d="M14.70862,1.56715a2.66755,2.66755,0,0,0-3.83182,0,2.66754,2.66754,0,0,0,0,3.83181,2.66755,2.66755,0,0,0,3.83182,0,2.66744,2.66744,0,0,0,0-3.83181" style="fill:#ff4b00"/><path d="M5.15161,11.75528a2.66755,2.66755,0,0,0-3.83182,0,2.66755,2.66755,0,0,0,0,3.83182,2.66757,2.66757,0,0,0,3.83182,0,2.74887,2.74887,0,0,0,0-3.83182" style="fill:#ff4b00"/></svg>