<svg xmlns="http://www.w3.org/2000/svg" viewBox="0 0 102 17"><title>menu logo full vizru</title><path d="M14.934,11.75528a3.44977,3.44977,0,0,0-2.16386-.94669A7.24425,7.24425,0,0,1,8.62278,8.10378C7.6761,7.112,6.23353,5.71453,6.18845,3.9564A3.62606,3.62606,0,0,0,5.42209,1.477,2.80676,2.80676,0,0,0,1.31979,5.3088c.49588.541,1.08192.76637,2.47941.90161,1.48765.18032,3.15561,1.84829,4.01214,2.70481a9.19778,9.19778,0,0,1,2.34417,4.41786,3.05587,3.05587,0,0,0,.76636,2.16386,2.7915,2.7915,0,0,0,3.96706.13524,2.76013,2.76013,0,0,0,.04509-3.8769" style="fill:#fff"/><path d="M14.70862,1.56715a2.66755,2.66755,0,0,0-3.83182,0,2.66754,2.66754,0,0,0,0,3.83181,2.66755,2.66755,0,0,0,3.83182,0,2.66744,2.66744,0,0,0,0-3.83181" style="fill:#ff4b00"/><path d="M5.15161,11.75528a2.66755,2.66755,0,0,0-3.83182,0,2.66755,2.66755,0,0,0,0,3.83182,2.66757,2.66757,0,0,0,3.83182,0,2.74887,2.74887,0,0,0,0-3.83182" style="fill:#ff4b00"/><path d="M22.32717,1.34174h2.84006a1.397,1.397,0,0,1,.76636.22541.80448.80448,0,0,1,.40572.541l2.93022,8.06936c.13524.36064.27048.72128.40572,1.127a11.06467,11.06467,0,0,1,.36064,1.30733,11.062,11.062,0,0,1,.36065-1.30732c.13524-.40573.2254-.81145.36064-1.127l2.88513-8.06936a1.1021,1.1021,0,0,1,.40573-.49588,1.06051,1.06051,0,0,1,.72128-.2254h2.84006L31.56862,16.39854H28.413Z" style="fill:#fff"/><rect x="43.19932" y="1.34174" width="3.51626" height="15.01172" style="fill:#fff"/><path d="M64.61243,1.34174V2.604a1.62089,1.62089,0,0,1-.09016.49588,5.28971,5.28971,0,0,1-.22541.49589l-7.03251,10.098H64.4321v2.70481H52.84648V15.04613a1.91759,1.91759,0,0,1,.09016-.49588,3.27067,3.27067,0,0,1,.2254-.40572l7.0776-10.098H53.43252V1.34174Z" style="fill:#fff"/><path d="M73.85387,10.80859v5.59H70.3827V1.34174h4.86866a8.58851,8.58851,0,0,1,2.795.36065,5.32805,5.32805,0,0,1,1.89337.94668,4.037,4.037,0,0,1,1.08193,1.39749,4.59412,4.59412,0,0,1,.36064,1.80321,4.773,4.773,0,0,1-.2254,1.39748,4.32756,4.32756,0,0,1-.58605,1.21717,6.52061,6.52061,0,0,1-.94668.99177,7.094,7.094,0,0,1-1.30733.72128,2.032,2.032,0,0,1,.63112.4508,1.71965,1.71965,0,0,1,.49589.63112l3.2007,5.22931H79.4889a1.4084,1.4084,0,0,1-1.26225-.63112l-2.52449-4.37279a.65645.65645,0,0,0-.36065-.40572,1.194,1.194,0,0,0-.63112-.13524l-.85652-.13524Zm0-2.38925h1.39749A4.343,4.343,0,0,0,76.46853,8.239,1.78323,1.78323,0,0,0,77.28,7.74314a1.65415,1.65415,0,0,0,.4508-.76637,2.9969,2.9969,0,0,0,.13525-.94668,2.00185,2.00185,0,0,0-.63112-1.53273,2.98074,2.98074,0,0,0-1.98353-.541H73.85388V8.41934Z" style="fill:#fff"/><path d="M93.82441,13.64865a3.08562,3.08562,0,0,0,1.21717-.2254,3.47421,3.47421,0,0,0,.94669-.63113,2.49473,2.49473,0,0,0,.586-1.08192,4.77317,4.77317,0,0,0,.22541-1.39749v-8.971h3.47118v8.92589a6.45918,6.45918,0,0,1-.4508,2.52449,5.977,5.977,0,0,1-1.26224,1.98353A5.83531,5.83531,0,0,1,96.52925,16.083a7.62475,7.62475,0,0,1-5.40963,0A5.83522,5.83522,0,0,1,89.091,14.77565a5.34089,5.34089,0,0,1-1.26225-1.98353,6.61429,6.61429,0,0,1-.4508-2.52449V1.34174h3.47118v8.92589a4.539,4.539,0,0,0,.2254,1.39749,4.15011,4.15011,0,0,0,.586,1.08192,2.13621,2.13621,0,0,0,.94669.67621,4.18722,4.18722,0,0,0,1.21714.2254" style="fill:#fff"/></svg>