<?xml version="1.0" encoding="utf-8"?>
<!-- Generator: Adobe Illustrator 18.0.0, SVG Export Plug-In . SVG Version: 6.00 Build 0)  -->
<!DOCTYPE svg PUBLIC "-//W3C//DTD SVG 1.1//EN" "http://www.w3.org/Graphics/SVG/1.1/DTD/svg11.dtd">
<svg version="1.1" id="Layer_1" xmlns="http://www.w3.org/2000/svg" xmlns:xlink="http://www.w3.org/1999/xlink" x="0px" y="0px"
	 viewBox="0 0 612 792" enable-background="new 0 0 612 792" xml:space="preserve">
<path fill="#A5A5A5" d="M610.1,566.6c-19.6,7.3-39.8,14.7-59.4,22c-36.1,13.5-72.8,27.5-108.9,41l-0.6-0.6c-1.2-2.4-1.2-4.9-1.2-7.3
	c0-48.3,0-96.7,0-145c0-1.8,0-3.7,0.6-5.5c0.6-3.1,3.1-3.7,5.5-4.9c52.6-19.6,104.7-39.8,157.3-59.4c1.8-0.6,4.3-1.8,6.7-1.2
	c1.2,1.2,0.6,3.1,0.6,4.3c0,50.8,0,102.2,0,153C610.7,564.2,610.7,565.4,610.1,566.6z"/>
<path fill="#D2D2D2" d="M610.1,405.7c-19,7.3-37.3,14.7-56.3,21.4c-34.9,13.5-69.8,26.3-104,39.2c-2.4,1.2-4.9,1.8-8,3.1
	c-1.8,1.2-4.3,0-6.1-0.6c-52.6-19.6-104.7-39.8-157.3-59.4c-1.8-0.6-4.3-1.2-5.5-3.7c0.6-2.4,2.4-3.1,4.3-3.7
	c15.3-6.1,30.6-11.6,45.9-17.7c2.4-0.6,4.3-1.8,6.7-0.6c0.6,0.6,1.2,1.8,1.2,2.4c0.6,3.1,0,6.7,0,9.8c0,6.1,3.1,9.8,8,12.2
	c16.5,6.1,32.4,6.1,49,0c3.1-1.2,5.5-3.1,7.3-6.7c1.8-6.1,1.2-11.6,0.6-17.7c-0.6-3.1-2.4-5.5-5.5-6.7c-4.9-3.1-10.4-4.3-16.5-5.5
	c-2.4,0-4.3-0.6-6.1-1.8c-0.6-3.1,1.8-3.1,3.7-3.7c12.9-4.9,25.7-9.8,37.9-14.7c1.8-0.6,3.7-1.8,5.5,0.6c1.8,3.7,0.6,8,0.6,12.2
	c0,2.4,0,4.3,0.6,6.7c1.8,3.7,5.5,5.5,9.2,6.7c14.1,4.9,28.2,5.5,42.8,0.6c9.8-3.1,11-5.5,11-15.9c0-2.4,0-5.5,0-8
	c0-1.8,0-3.1,1.8-4.3c0,7.3,4.9,8.6,10.4,10.4c7.3,2.4,14.1,5.5,20.8,8c-0.6,2.4-3.1,2.4-4.9,3.1c-3.7,0.6-6.7,2.4-9.8,4.3
	c-4.3,2.4-6.7,6.1-6.7,11.6c0.6,4.9-0.6,9.2,0.6,14.1c1.8,4.3,5.5,6.7,9.8,8c14.7,4.9,29.4,4.9,44.1,0c4.3-1.2,8-3.7,9.8-8
	c1.2-3.1,0.6-6.1,0.6-9.2c0-2.4-0.6-4.3,1.8-6.1c15.3,5.5,30,11,45.3,17.1C607,403.8,608.9,404.4,610.1,405.7z"/>
<path fill="#BDE5CB" d="M416.1,351.8c3.1-9.2,11-10.4,19-12.2c13.5-2.4,26.3-2.4,39.2,3.1c3.7,1.8,8,3.7,8.6,8.6c0,1.8,0,3.1,0,4.9
	c-1.2,3.7-4.3,6.1-8,7.3c-16.5,6.1-33,6.1-49.6,0c-1.2-0.6-2.4-1.2-3.7-1.8s-2.4-1.8-3.7-2.4c-0.6,4.9,1.8,9.8-1.8,14.1
	C414.9,365.3,416.7,358.5,416.1,351.8z"/>
<path fill="#EEEEEE" d="M493.2,402c-1.8-6.1-1.8-12.9-0.6-19c1.8-8,9.8-9.8,16.5-12.2c1.8-0.6,3.7-0.6,5.5-1.2
	c10.4,0,20.8,0,30.6,2.4c7.3,1.8,14.7,4.9,15.3,14.1c-0.6,5.5,1.2,11.6-1.2,17.1c-3.7-4.9-1.2-10.4-1.2-14.1
	c-7.3,12.9-56.3,12.2-64.3-1.2c0-0.6-0.6,0.6,0,0c0,0,0.6,0,0.6,0.6C495,392.8,496.3,397.7,493.2,402z"/>
<path fill="#AFAFAF" d="M272.9,405.7c0.6,0,0.6,0,1.2,0c15.9,6.1,31.8,12.2,47.7,18.4c35.5,13.5,71,26.9,106.5,40.4
	c4.9,1.8,9.2,3.7,14.1,5.5c0,47.7,0,95.5,0,143.8c0,5.5,0,11,0,15.9c-23.9-9.2-48.3-17.7-72.2-26.9c-30.6-11.6-61.2-23.3-91.2-34.3
	c-1.2-0.6-2.4-1.2-4.3-1.2l-0.6-0.6V566C272.9,512.2,272.9,458.9,272.9,405.7z"/>
<path fill="#BDE5CB" d="M330.4,384.3c1.2-6.1,6.1-9.2,11.6-11c8.6-3.7,17.7-3.7,26.9-3.7c8.6,0.6,16.5,1.8,23.9,6.1
	c2.4,1.8,4.9,3.1,5.5,6.7c1.2,6.7,1.8,12.9,0,19.6c-3.1-3.7-0.6-8-1.8-12.2c-7.3,5.5-15.9,8-25.1,8c-9.8,0-20.2,0.6-29.4-3.1
	c-4.3-1.8-8.6-3.7-11-8C331,386.1,331,384.9,330.4,384.3z"/>
<path fill="#3C9667" d="M331,386.7c15.3,12.2,33,11,50.8,8.6c6.1-0.6,11-3.7,16.5-9.2c0,6.7,0,11.6,0,16.5c-2.4,6.1-8,8-12.9,9.8
	c-13.5,4.3-27.5,4.3-41,0c-11-3.1-12.9-6.7-12.9-18.4C331,391,331,389.1,331,386.7z"/>
<path fill="#969696" d="M479.7,426.5c0-0.6,0-1.8,0-3.1c0-1.2,0-3.1,0-4.3s0-1.8,0-3.1l0,0c0-1.2,0-2.4,0-3.7
	c-2.4,3.1-5.5,6.1-9.8,7.3c-19.6,6.1-39.2,6.7-57.5-5.5c0,1.2,0,2.4,0,3.7c0,3.7,0,6.7,0,10.4c0,1.2,0,2.4,0,3.7
	c0.6,4.9,4.3,7.3,8.6,8.6c16.5,6.7,33.7,6.7,50.2,0c5.5-2.4,9.2-6.1,8.6-12.9C479.7,427.1,479.7,426.5,479.7,426.5z"/>
<path fill="#969696" d="M493.2,386.7c0,1.2,0,2.4,0,3.7c0,4.3,0,8,0,11.6c0,1.2,0,2.4,0,3.7c1.8,4.9,6.7,7.3,11.6,9.2
	c10.4,3.7,20.8,4.3,31.2,3.1c8.6-1.2,17.7-3.1,23.9-11c0-1.2,0-2.4,0-3.7c0-4.3,0-8.6,0-12.9c0-1.2,0-2.4,0-3.7
	C545.2,400.2,507.9,400.2,493.2,386.7z"/>
<path fill="#3C9667" d="M417.3,372c0-5.5,0-10.4,0-16.5c20.2,13.5,49.6,12.9,66.1-0.6c0,3.1,0,6.1,0,9.8c0,8.6-1.2,11-9.8,14.1
	c-15.9,6.1-32.4,5.5-48.3-0.6C421.6,377.5,419.2,375.1,417.3,372z"/>
<path fill="#BDBDBD" d="M511.6,370.8c-19.6,7.3-39.8,14.7-59.4,22c-36.1,13.5-72.8,27.5-108.9,41l-0.6-0.6c-1.2-2.4-1.2-4.9-1.2-7.3
	c0-48.3,0-96.7,0-145c0-1.8,0-3.7,0.6-5.5c0.6-3.1,3.1-3.7,5.5-4.9c52.6-19.6,104.7-39.8,157.3-59.4c1.8-0.6,4.3-1.8,6.7-1.2
	c1.2,1.2,0.6,3.1,0.6,4.3c0,50.8,0,102.2,0,153C512.2,368.3,512.2,369.6,511.6,370.8z"/>
<path fill="#EEEEEE" d="M511.6,209.8c-19,7.3-37.3,14.7-56.3,21.4c-34.9,13.5-69.8,26.3-104,39.2c-2.4,1.2-4.9,1.8-8,3.1
	c-1.8,1.2-4.3,0-6.1-0.6c-52.6-19.6-104.7-39.8-157.3-59.4c-1.8-0.6-4.3-1.2-5.5-3.7c0.6-2.4,2.4-3.1,4.3-3.7
	c15.3-6.1,30.6-11.6,45.9-17.7c2.4-0.6,4.3-1.8,6.7-0.6c0.6,0.6,1.2,1.8,1.2,2.4c0.6,3.1,0,6.7,0,9.8c0,6.1,3.1,9.8,8,12.2
	c16.5,6.1,32.4,6.1,49,0c3.1-1.2,5.5-3.1,7.3-6.7c1.8-6.1,1.2-11.6,0.6-17.7c-0.6-3.1-2.4-5.5-5.5-6.7c-4.9-3.1-10.4-4.3-16.5-5.5
	c-2.4,0-4.3-0.6-6.1-1.8c-0.6-3.1,1.8-3.1,3.7-3.7c12.9-4.9,25.7-9.8,37.9-14.7c1.8-0.6,3.7-1.8,5.5,0.6c1.8,3.7,0.6,8,0.6,12.2
	c0,2.4,0,4.3,0.6,6.7c1.8,3.7,5.5,5.5,9.2,6.7c14.1,4.9,28.2,5.5,42.8,0.6c9.8-3.1,11-5.5,11-15.9c0-2.4,0-5.5,0-8
	c0-1.8,0-3.1,1.8-4.3c0,7.3,4.9,8.6,10.4,10.4c7.3,2.4,14.1,5.5,20.8,8c-0.6,2.4-3.1,2.4-4.9,3.1c-3.7,0.6-6.7,2.4-9.8,4.3
	c-4.3,2.4-6.7,6.1-6.7,11.6c0.6,4.9-0.6,9.2,0.6,14.1c1.8,4.3,5.5,6.7,9.8,8c14.7,4.9,29.4,4.9,44.1,0c4.3-1.2,8-3.7,9.8-8
	c1.2-3.1,0.6-6.1,0.6-9.2c0-2.4-0.6-4.3,1.8-6.1c15.3,5.5,30,11,45.3,17.1C508.5,208,510.3,208.6,511.6,209.8z"/>
<path fill="#EEEEEE" d="M317.6,156c3.1-9.2,11-10.4,19-12.2c13.5-2.4,26.3-2.4,39.2,3.1c3.7,1.8,8,3.7,8.6,8.6c0,1.8,0,3.1,0,4.9
	c-1.2,3.7-4.3,6.1-8,7.3c-16.5,6.1-33,6.1-49.6,0c-1.2-0.6-2.4-1.2-3.7-1.8c-1.2-0.6-2.4-1.8-3.7-2.4c-0.6,4.9,1.8,9.8-1.8,14.1
	C315.7,169.4,318.2,162.7,317.6,156z"/>
<path fill="#EEEEEE" d="M394.7,206.8c-1.8-6.1-1.8-12.9-0.6-19c1.8-8,9.8-9.8,16.5-12.2c1.8-0.6,3.7-0.6,5.5-1.2
	c10.4,0,20.8,0,30.6,2.4c7.3,1.8,14.7,4.9,15.3,14.1c-0.6,5.5,1.2,11.6-1.2,17.1c-3.7-4.9-1.2-10.4-1.2-14.1
	c-7.3,12.9-56.3,12.2-64.3-1.2c0-0.6-0.6,0.6,0,0c0,0,0.6,0,0.6,0.6C396.5,197.6,397.7,201.9,394.7,206.8z"/>
<path fill="#D8D8D8" d="M174.4,209.8c0.6,0,0.6,0,1.2,0c15.9,6.1,31.8,12.2,47.7,18.4c35.5,13.5,71,26.9,106.5,40.4
	c4.9,1.8,9.2,3.7,14.1,5.5c0,47.7,0,95.5,0,143.8c0,5.5,0,11,0,15.9c-23.9-9.2-48.3-17.7-72.2-26.9c-30.6-11.6-61.2-23.3-91.2-34.3
	c-1.2-0.6-2.4-1.2-4.3-1.2l-0.6-0.6v-0.6C174.4,316.9,174.4,263.1,174.4,209.8z"/>
<path fill="#EEEEEE" d="M231.9,188.4c1.2-6.1,6.1-9.2,11.6-11c8.6-3.7,17.7-3.7,26.9-3.7c8.6,0.6,16.5,1.8,23.9,6.1
	c2.4,1.8,4.9,3.1,5.5,6.7c1.2,6.7,1.8,12.9,0,19.6c-3.1-3.7-0.6-8-1.8-12.2c-7.3,5.5-15.9,8-25.1,8c-9.8,0-20.2,0.6-29.4-3.1
	c-4.3-1.8-8.6-3.7-11-8C232.5,190.2,232.5,189.6,231.9,188.4z"/>
<path fill="#EEEEEE" d="M313.9,232.5c-1.8-5.5-1.2-11.6-0.6-17.7c1.2-7.3,8-9.8,14.1-11c14.1-3.7,28.2-4.3,42.2,0.6
	c6.1,1.8,11.6,4.9,11.6,12.2c-1.2,4.3-4.3,6.7-8.6,8.6c-17.1,6.1-34.3,6.1-51.4-0.6c-3.1-1.2-4.9-3.1-6.1-4.9
	C315.7,223.3,317,228.2,313.9,232.5z"/>
<path fill="#368E7D" d="M313.9,233.7c0-4.3,0-9.2,0-14.1c18.4,12.2,37.9,11.6,57.5,5.5c3.7-1.2,7.3-3.7,9.8-7.3c0,3.7,0,7.3,0,11
	c0.6,6.7-3.1,11-8.6,12.9c-16.5,6.7-33.7,6.7-50.2,0C318.8,240.4,315.1,238.6,313.9,233.7z"/>
<path fill="#368E7D" d="M394.7,209.2c0-4.9,0-9.8,0-15.3c14.7,12.9,52,13.5,66.7,0c0,6.1,0,11,0,16.5c-5.5,8-14.7,9.8-23.9,11
	c-10.4,1.2-21.4,0.6-31.2-3.1C401.4,216.6,396.5,214.1,394.7,209.2z"/>
<path fill="#9C9C9C" d="M381.2,230.6c0-0.6,0-1.8,0-2.4c0-1.2,0-3.1,0-4.3c0-0.6,0-1.2,0-1.8l0,0c0-0.6,0-0.6,0-1.2l0,0
	c0-0.6,0-0.6,0-1.2l0,0c0-0.6,0-1.8,0-2.4c-2.4,3.1-5.5,6.1-9.8,7.3c-19.6,6.1-39.2,6.7-57.5-5.5c0,0.6,0,1.8,0,2.4
	c0,0.6,0,0.6,0,1.2s0,0.6,0,1.2c0,3.1,0,6.1,0,9.2c0,0.6,0,1.8,0,2.4c0,0.6,0,0.6,0,1.2s0,0.6,0,1.2c0.6,4.9,4.3,7.3,8.6,8.6
	c16.5,6.7,33.7,6.7,50.2,0c5.5-1.8,8.6-6.1,8.6-11.6c0-0.6,0-0.6,0-1.2C381.2,231.9,381.2,231.3,381.2,230.6z"/>
<path fill="#9C9C9C" d="M283.3,199.4c-17.7,2.4-35.5,3.7-50.8-8.6c0,0.6,0,0.6,0,1.2s0,0.6,0,1.2s0,0.6,0,1.2s0,0.6,0,1.2
	c0,0.6,0,1.2,0,1.8c0,0.6,0,0.6,0,1.2s0,0.6,0,1.2s0,0.6,0,1.2c0,0.6,0,0.6,0,1.2c0,11.6,2.4,14.7,12.9,18.4c13.5,4.3,27.5,4.3,41,0
	c5.5-1.8,11-3.7,12.9-9.8c0-0.6,0-0.6,0-1.2s0-0.6,0-1.2c0-0.6,0-0.6,0-1.2s0-0.6,0-1.2c0-3.7,0-7.3,0-11.6c0-0.6,0-0.6,0-1.2
	s0-0.6,0-1.2s0-0.6,0-1.2s0-0.6,0-1.2C294.3,195.8,289.4,198.8,283.3,199.4z"/>
<path fill="#9C9C9C" d="M394.7,190.9c0,0.6,0,0.6,0,1.2s0,1.8,0,2.4s0,0.6,0,1.2c0,3.7,0,7.3,0,10.4c0,0.6,0,0.6,0,1.2s0,1.8,0,2.4
	s0,0.6,0,1.2c1.8,5.5,6.7,7.3,11.6,9.2c10.4,3.7,20.8,4.3,31.2,3.1c8.6-1.2,17.7-3.1,23.9-11c0-0.6,0-0.6,0-1.2s0-1.8,0-2.4
	s0-0.6,0-1.2c0-3.7,0-7.3,0-11.6c0-0.6,0-0.6,0-1.2s0-1.8,0-2.4s0-0.6,0-1.2C446.7,204.3,409.4,204.3,394.7,190.9z"/>
<path fill="#9C9C9C" d="M384.9,169.4v-0.6c0-3.1,0-6.1,0-9.8c-16.5,13.5-45.9,14.1-66.1,0.6c0,0.6,0,0.6,0,1.2c0,1.2,0,2.4,0,3.7
	c0,3.7,0,8,0,11.6c0,0.6,0,0.6,0,1.2c0,1.2,0,2.4,0,3.7c1.8,3.1,4.9,5.5,8,6.7c15.9,6.1,32.4,6.7,48.3,0.6c8.6-3.1,9.8-5.5,9.8-14.1
	c0-0.6,0-1.2,0-1.8C384.9,171.3,384.9,170.7,384.9,169.4C384.9,170.1,384.9,170.1,384.9,169.4z"/>
<path fill="#A5A5A5" d="M344.5,592.9c-43.5,16.5-86.9,33-130.4,49.6c-12.9,4.9-25.1,10.4-38.6,14.1c-1.8-2.4-1.8-4.9-1.8-7.3
	c0-48.3,0-97.3,0-145.7c0-1.8,0-3.7,0.6-5.5c1.2-3.1,3.7-4.3,6.1-4.9c37.3-14.1,74.7-28.2,112-42.2c14.7-5.5,29.4-11.6,44.7-16.5
	c2.4-0.6,4.9-2.4,7.3-0.6c0.6,0.6,1.2,1.2,1.2,1.8c0.6,2.4,0.6,4.9,0.6,7.3c0,47.7,0,94.9,0,142.6
	C346.3,586.8,347.6,590.5,344.5,592.9z"/>
<path fill="#AFAFAF" d="M175.6,495.6c0,50.8,0,101,0,151.8c0,3.1,0,5.5,0,8.6c-19.6-7.3-38.6-14.1-58.1-21.4
	c-35.5-13.5-71-26.9-106.5-40.4c-1.2-0.6-2.4-1.2-3.7-1.8c-1.2-1.8-0.6-3.7-0.6-5.5c0-49.6,0-99.1,0-148.1c0-7.3,0.6-8,8-5.5
	c28.2,11,56.9,21.4,85.1,32.4c22,8.6,44.1,16.5,66.1,25.1C170.1,492,173.7,492.6,175.6,495.6z"/>
<path fill="#D2D2D2" d="M295.5,413.6c15.9,6.1,31.8,12.2,47.7,17.7v0.6c-23.9,8.6-47.1,17.7-71,26.3c-32.4,12.2-64.9,24.5-96.7,36.7
	c-25.1-9.2-49.6-18.4-74.7-28.2c-28.8-11-58.1-22-86.9-33c-6.1-2.4-6.1-1.8-6.1,4.3c0,51.4,0,102.2,0,153.6
	c-1.8-1.2-0.6-3.7-0.6-5.5c0-50.2,0-99.8,0-149.9c0-4.3,1.2-6.1,5.5-7.3c18.4-6.7,36.7-14.1,55.1-20.8c0.6,0.6,1.2,1.2,1.2,2.4
	c0.6,4.3,0,8,0,12.2c0,4.9,1.8,8,6.1,9.8c17.1,7.3,34.3,7.3,50.8,0.6c4.9-2.4,8-6.1,7.3-12.2c0-3.1,0-6.7,0-9.8
	c0.6-4.9-2.4-8-6.7-9.8c-5.5-2.4-11-3.7-16.5-4.3c-1.8,0-4.3,0-5.5-1.8c15.9-6.1,32.4-12.2,48.3-18.4c1.2,0.6,1.2,1.8,1.2,3.7
	c0,3.1,0.6,6.7,0,9.8c-0.6,6.7,2.4,11,8.6,12.9c15.9,6.1,31.8,6.1,47.1,0c5.5-1.8,8.6-6.1,8.6-12.2c0-1.8,0-4.3,1.8-5.5
	c8,3.1,16.5,6.1,24.5,9.2c3.1,1.2,5.5,1.8,8.6,1.8c-0.6,2.4-3.1,1.8-4.3,2.4c-3.7,0.6-7.3,1.8-11,3.7c-4.3,1.8-7.3,5.5-7.3,10.4
	c0,3.1,0,6.1,0,9.2c-0.6,6.7,2.4,11,8.6,12.9c15.9,6.1,31.8,6.1,47.7,0c5.5-2.4,8-6.1,8-12.2C293.7,419.7,293.1,416.1,295.5,413.6z"
	/>
<path fill="#EEEEEE" d="M104,395.9c9.2,0.6,17.7,1.2,25.1,6.7c3.7,2.4,5.5,5.5,4.9,9.8c-1.2,4.9-4.9,7.3-8.6,8.6
	c-17.1,6.1-33.7,6.1-50.8-0.6c-3.7-1.2-6.7-3.7-7.3-8c0-0.6,0-1.8,0-2.4c0.6-4.9,4.3-7.3,8.6-9.2C84.4,395.9,94.2,395.3,104,395.9z"
	/>
<path fill="#EEEEEE" d="M152.3,380.6c0-1.2,0-2.4,0-3.1c2.4-7.3,9.8-9.2,15.9-11c2.4-0.6,4.9-1.2,7.3-1.8
	c11.6-0.6,23.3-1.2,34.3,3.7c4.9,2.4,10.4,4.9,9.2,12.2c-1.2,4.3-4.3,6.7-8,8c-17.1,6.7-34.3,6.7-50.8,0
	C156.6,386.7,153.6,384.3,152.3,380.6z"/>
<path fill="#EEEEEE" d="M228.2,411.8c0-9.2,7.3-11,14.1-13.5c3.1-1.2,6.7-1.2,10.4-1.8c12.2-1.2,24.5-1.2,36.1,4.9
	c4.9,2.4,8,5.5,6.7,11.6c-1.2,3.7-4.3,6.1-8,7.3c-16.5,6.1-33,6.1-49.6,0.6C233.7,419.1,229.4,416.7,228.2,411.8z"/>
<path fill="#EEEEEE" d="M148.7,456.5c-2.4-6.7-1.2-14.1-0.6-20.8c0.6-3.7,3.7-6.1,7.3-8c17.7-7.3,35.5-7.3,52.6,0
	c4.9,2.4,8,6.1,7.3,12.2c0,4.9,1.2,10.4-0.6,15.3c-3.1-4.9-1.8-9.2-1.2-12.9c-8.6,12.9-56.9,12.9-64.3-0.6
	C150.5,446.1,151.7,451.6,148.7,456.5z"/>
<path fill="#969696" d="M219.6,386.1v-0.6c0-1.8,0-3.7-0.6-4.9c-3.1,3.1-6.1,5.5-10.4,7.3c-10.4,4.3-22,4.9-33,3.7
	c-8.6-1.2-17.7-3.1-23.9-11c0,1.2,0,2.4,0,3.7l0,0v0.6c0,1.2,0,2.4,0,3.1c0,1.8,0,3.7,0,5.5c-0.6,11.6,6.1,14.7,14.1,16.5
	c11.6,3.1,23.3,3.7,34.9,1.2c15.3-3.1,17.7-6.7,18.4-22v-0.6c0-0.6,0-1.8,0-2.4C219.6,386.7,219.6,386.1,219.6,386.1z"/>
<path fill="#969696" d="M295.5,416.7c0-1.2,0-1.8,0-3.1c0-0.6,0-0.6-0.6-1.2c-4.3,4.3-9.8,6.7-15.3,8.6c-9.8,3.1-20.2,2.4-30.6,1.2
	c-8-1.2-15.9-3.1-21.4-10.4c0,1.2,0,2.4,0,3.7l0,0c0,1.2,0,2.4,0,3.7c0,1.2,0,2.4,0,3.7s0,1.8,0,3.1v0.6c-0.6,6.7,2.4,11,8.6,13.5
	c17.1,6.7,34.3,6.7,51.4,0c4.9-1.8,8-6.1,7.3-11.6c0-0.6,0-1.8,0-2.4c0-0.6,0-0.6,0-1.2s0-1.8,0-2.4
	C295.5,419.7,295.5,418.5,295.5,416.7C295.5,417.3,295.5,417.3,295.5,416.7z"/>
<path fill="#969696" d="M134,425.9c0-1.2,0-1.8,0-3.1c0-1.2,0-3.1,0-4.3c0-1.2,0-1.8,0-3.1l0,0c0-1.2,0-2.4,0-3.7
	c-3.1,3.7-6.7,6.1-11.6,8c-10.4,3.7-21.4,3.7-32.4,2.4c-8.6-0.6-17.1-2.4-22.6-11c0,1.2,0,2.4,0,3.7l0,0c0,1.2,0,1.8,0,3.1
	c0,1.8,0,3.7,0,5.5c0,0.6,0,1.2,0,1.8s0,1.2,0,1.8c-0.6,5.5,2.4,9.8,6.7,11.6c17.7,7.3,34.9,8,52.6,0
	C131.5,436.9,135.2,433.2,134,425.9C134,426.5,134,426.5,134,425.9z"/>
<path fill="#969696" d="M148.7,440.6c0,0.6,0,1.8,0,2.4c0,4.3,0,8.6,0,12.9c0,0.6,0,1.8,0,2.4c2.4,3.7,6.1,6.1,9.8,7.3
	c15.3,4.9,30.6,5.5,45.9,0c4.3-1.8,8.6-3.7,10.4-8.6c0-0.6,0-1.8,0-2.4c0-4.3,0-8,0-12.2c0-0.6,0-1.8,0-2.4
	C192.7,452.8,170.7,453.4,148.7,440.6z"/>
<g id="Layer_3_2_">
	<g>
		<path fill="#EEEEEE" d="M412.4,427.7c-1.8-5.5-1.2-11.6-0.6-17.7c1.2-7.3,8-9.8,14.1-11c14.1-3.7,28.2-4.3,42.2,0.6
			c6.1,1.8,11.6,4.9,11.6,12.2c-1.2,4.3-4.3,6.7-8.6,8.6c-17.1,6.1-34.3,6.1-51.4-0.6c-3.1-1.2-4.9-3.1-6.1-4.9
			C414.3,419.1,415.5,423.4,412.4,427.7z"/>
	</g>
</g>
</svg>
